#!OML:ASF F:\VICON\USERDATA\Patient Classification 1\PLAYGROUND\JustinFriday\JustinFriday.ASF
:FULLY-SPECIFIED
:DEGREES
3761
root 14.0837 18.4895 53.7602 -724.302 -187.394 -0.484856
lowerback 11.2423 6.91245 -8.74054
upperback 10.3282 10.0773 4.68743
thorax 2.55669 5.15434 8.8098
lowerneck 6.51486 -7.70021 7.97146
upperneck 23.1868 -12.9338 -5.08077
head 5.22112 -7.01563 -3.24682
rclavicle -6.48038e-014 1.43125e-014
rhumerus -34.0117 -32.2392 -66.235
rradius 26.9557
rwrist -5.79793
rhand -17.5025 -37.9462
rfingers 7.12502
rthumb 8.75045 -427.745
lclavicle -6.48038e-014 1.43125e-014
lhumerus 48.5623 -22.7904 72.5097
lradius 43.8316
lwrist -14.2593
lhand -22.1953 -9.01445
lfingers 7.12502
lthumb 4.22018 20.9235
rfemur -57.5958 -0.961474 19.8384
rtibia 97.5547
rfoot -20.2649 -7.51261
rtoes 6.00417
lfemur 10.1991 7.16337 -23.2057
ltibia -7.95139e-016
lfoot -3.4852 1.28462
ltoes 4.71869
3762
root 14.0954 18.4908 53.7773 -724.113 -187.342 -0.0320385
lowerback 10.8408 6.9223 -8.51299
upperback 10.2568 10.1128 4.88484
thorax 2.67903 5.16487 8.93817
lowerneck 4.97938 -7.20085 8.96919
upperneck 23.6548 -12.0927 -5.92172
head 5.53825 -6.54319 -3.76619
rclavicle 2.26615e-014 -7.15625e-015
rhumerus -34.2066 -33.2565 -65.4215
rradius 26.0051
rwrist -5.017
rhand -17.1471 -37.7829
rfingers 7.12502
rthumb 9.09341 -427.567
lclavicle 2.26615e-014 -7.15625e-015
lhumerus 47.2201 -23.3002 73.0535
lradius 45.1762
lwrist -14.1562
lhand -22.6382 -9.46169
lfingers 7.12502
lthumb 3.79249 20.4843
rfemur -56.5833 -0.858315 19.9391
rtibia 97.317
rfoot -18.9106 -7.44114
rtoes 7.93192
lfemur 10.0264 6.9896 -22.6932
ltibia -3.97569e-015
lfoot -3.45695 1.33289
ltoes 5.36874
3763
root 14.1117 18.4733 53.7981 -724.054 -187.261 0.062801
lowerback 10.5862 6.97987 -8.67456
upperback 10.2307 10.1854 4.9936
thorax 2.73103 5.18378 9.16545
lowerneck 4.16938 -7.07435 9.36865
upperneck 23.8816 -11.8656 -6.29533
head 5.70387 -6.40504 -3.9984
rclavicle 1.15295e-014 -7.07673e-014
rhumerus -34.4325 -34.1633 -64.6689
rradius 25.2574
rwrist -4.63616
rhand -16.8618 -37.3978
rfingers 7.12502
rthumb 9.36866 -427.17
lclavicle 1.15295e-014 -7.07673e-014
lhumerus 45.689 -23.985 73.1658
lradius 46.7891
lwrist -13.6267
lhand -23.4415 -9.9246
lfingers 7.12502
lthumb 3.01676 20.0338
rfemur -55.6141 -0.824252 19.6539
rtibia 97.0413
rfoot -17.4963 -7.20934
rtoes 9.7398
lfemur 9.89856 6.82167 -22.5497
ltibia 3.33958e-014
lfoot -3.30516 1.4076
ltoes 6.06148
3764
root 14.1271 18.4655 53.8189 -724.128 -187.152 -0.199995
lowerback 10.4633 7.082 -9.17488
upperback 10.2152 10.2873 5.02277
thorax 2.68725 5.20841 9.47226
lowerneck 3.77134 -7.15414 9.3914
upperneck 24.0328 -11.977 -6.42725
head 5.79596 -6.45676 -4.07308
rclavicle -7.95139e-016 4.05521e-014
rhumerus -34.7155 -34.9951 -63.863
rradius 24.5826
rwrist -4.46366
rhand -16.2873 -36.8911
rfingers 7.12502
rthumb 9.923 -426.637
lclavicle -7.95139e-016 4.05521e-014
lhumerus 44.3044 -24.7884 73.103
lradius 48.2823
lwrist -12.8595
lhand -24.1282 -10.4233
lfingers 7.12502
lthumb 2.35353 19.5434
rfemur -54.5125 -0.857076 18.9698
rtibia 96.6554
rfoot -15.9878 -7.12036
rtoes 7.63189
lfemur 9.88068 6.66201 -22.7971
ltibia -3.33958e-014
lfoot -3.22031 1.46283
ltoes 6.51326
3765
root 14.1421 18.4496 53.835 -724.152 -187.054 -0.327166
lowerback 10.2582 7.14713 -9.48397
upperback 10.2016 10.3605 5.06768
thorax 2.71716 5.22299 9.70788
lowerneck 3.21496 -7.25944 9.32588
upperneck 24.2955 -12.1605 -6.50947
head 5.95351 -6.54541 -4.1361
rclavicle -3.85642e-014 1.43125e-014
rhumerus -34.9769 -35.8476 -63.0891
rradius 23.8777
rwrist -3.93042
rhand -15.0071 -36.8655
rfingers 7.12502
rthumb 11.1579 -426.549
lclavicle -3.85642e-014 1.43125e-014
lhumerus 43.1301 -25.5708 73.1294
lradius 49.4263
lwrist -12.2572
lhand -24.6271 -10.55
lfingers 7.12502
lthumb 1.87176 19.4215
rfemur -53.3779 -0.767382 18.4227
rtibia 96.1901
rfoot -14.34 -7.1489
rtoes 6.21631
lfemur 9.83707 6.49979 -22.9011
ltibia -7.95139e-016
lfoot -3.27106 1.52706
ltoes 7.01262
3766
root 14.1571 18.4429 53.8462 -724.113 -186.969 -0.283712
lowerback 9.93534 7.16285 -9.56366
upperback 10.2021 10.396 5.13065
thorax 2.86118 5.22214 9.86241
lowerneck 2.40111 -7.32092 9.2008
upperneck 24.6514 -12.3092 -6.53434
head 6.19461 -6.61121 -4.19469
rclavicle -9.62118e-014 -4.77083e-015
rhumerus -35.1732 -36.4579 -62.5479
rradius 23.3545
rwrist -3.38147
rhand -14.3743 -36.3751
rfingers 7.12502
rthumb 11.7682 -426.024
lclavicle -9.62118e-014 -4.77083e-015
lhumerus 41.753 -26.242 73.3525
lradius 50.6805
lwrist -11.7605
lhand -24.8169 -10.5162
lfingers 7.12502
lthumb 1.6884 19.4569
rfemur -52.1255 -0.735494 18.0746
rtibia 95.4892
rfoot -12.513 -7.39344
rtoes 8.63047
lfemur 9.76732 6.3319 -22.8072
ltibia 2.14687e-014
lfoot -3.36676 1.57344
ltoes 6.9311
